<svg width="1278" height="1999" viewBox="0 0 1278 1999" fill="none" xmlns="http://www.w3.org/2000/svg">
<path d="M166.841 51.9992C285.265 183.056 335.682 162.074 483.302 77.1924C630.923 -7.6895 741.139 11.719 741.139 77.192C741.139 108 673.487 148 673.487 148C673.487 148 319.361 332.57 305.235 341.987C285.86 354.904 228.297 405.648 261.512 437.94C294.727 470.232 378.123 474.845 442.707 437.94C494.374 408.416 833.026 200.852 1020.84 96.8484C1071.65 68.7111 1134.97 63.0862 1168.26 77.1924C1240.96 108 1179.44 170.678 1130.9 200.852C1108.11 215.019 733.385 425.919 609.999 495.325M570.951 517.286C471.538 579.506 491.357 645.257 583.619 640.09C698.948 633.632 755.477 584.638 782.233 567.108C803.638 553.084 959.611 464.217 1056.18 408.859C1077.09 393.174 1174.35 342.356 1226.02 365.975C1259.25 381.166 1280.34 427.035 1208.49 490.53C1124.88 564.413 636.085 851.455 401.463 1004C321.282 1056.13 450.976 1099.92 570.951 1183.93M570.951 517.286C595.418 503.528 585.535 509.087 609.999 495.325M570.951 517.286C586.201 508.71 609.999 495.325 609.999 495.325M1173.11 1556C1267.7 1631.98 1258.01 1715.43 1148.22 1706.65C1011.13 1695.7 977.421 1659.12 841.999 1580C706.578 1500.87 478.709 1363.03 389.017 1300C299.326 1236.97 137.61 1203.84 137.61 1203.84C137.61 1203.84 -41.9185 1232.37 89.9999 1345.72C221.918 1459.08 650.38 1674.29 926.68 1843.56C981.702 1877.27 922.914 2028.16 809.999 1960.55C697.085 1892.94 199.028 1632.04 199.028 1632.04C199.028 1632.04 84.1253 1574.11 38.4756 1647.85C-19.8273 1742.03 78.0917 1782.4 150.597 1827.24M1173.11 1556C1173.11 1556 802.044 1345.74 570.951 1183.93M1173.11 1556L570.951 1183.93" stroke="url(#paint0_linear_259_709)" stroke-width="41"/>
<defs>
<linearGradient id="paint0_linear_259_709" x1="143.722" y1="20.5762" x2="192.052" y2="1825.49" gradientUnits="userSpaceOnUse">
<stop stop-color="#3A36FF" stop-opacity="0"/>
<stop offset="0.229167" stop-color="#3A36FF"/>
<stop offset="0.872558" stop-color="#3A36FF"/>
<stop offset="1" stop-color="#3A36FF" stop-opacity="0"/>
</linearGradient>
</defs>
</svg>
