<svg width="1127" height="1565" viewBox="0 0 1127 1565" fill="none" xmlns="http://www.w3.org/2000/svg">
<path d="M15.8408 51.9988C134.265 183.055 184.682 162.074 332.302 77.1924C479.923 -7.6895 590.139 11.719 590.139 77.192C590.139 108 522.486 148 522.486 148C522.486 148 168.361 332.57 154.235 341.987C134.86 354.904 77.2972 405.648 110.512 437.94C143.726 470.232 227.123 474.845 291.707 437.94C343.374 408.416 682.026 200.852 869.838 96.8484C920.649 68.7111 983.972 63.0862 1017.26 77.1924C1089.96 108 1028.44 170.678 979.9 200.852C957.11 215.019 582.385 425.919 458.999 495.325M419.951 517.286C320.538 579.506 340.356 645.257 432.619 640.09C547.948 633.632 604.477 584.638 631.233 567.108C652.638 553.084 808.611 464.217 905.18 408.859C926.093 393.174 1023.35 342.356 1075.02 365.975C1108.25 381.166 1129.34 427.035 1057.49 490.53C973.876 564.413 485.085 851.455 250.463 1004C170.282 1056.13 299.975 1099.92 419.951 1183.93M419.951 517.286C444.418 503.528 434.535 509.087 458.999 495.325M419.951 517.286C435.2 508.71 458.999 495.325 458.999 495.325M675.099 1384.7C793.657 1492.74 700.114 1543.95 641.616 1543.95C571 1543.95 432.619 1436 432.619 1436L211 1300L20.6496 1183.93M675.099 1384.7C675.099 1384.7 651.044 1345.74 419.951 1183.93M675.099 1384.7L419.951 1183.93" stroke="url(#paint0_linear_264_833)" stroke-width="41"/>
<defs>
<linearGradient id="paint0_linear_264_833" x1="97.9719" y1="20.5763" x2="1206.85" y2="1778.36" gradientUnits="userSpaceOnUse">
<stop stop-color="#3A36FF" stop-opacity="0"/>
<stop offset="0.229167" stop-color="#3A36FF"/>
<stop offset="0.872558" stop-color="#3A36FF"/>
<stop offset="1" stop-color="#3A36FF" stop-opacity="0"/>
</linearGradient>
</defs>
</svg>
