<svg width="735" height="2150" viewBox="0 0 735 2150" fill="none" xmlns="http://www.w3.org/2000/svg">
<path d="M164.61 207.269L175.981 224.326L164.61 207.269ZM244.279 262.877L234.108 245.078L244.279 262.877ZM579.327 65.2024L569.396 47.2686L579.327 65.2024ZM664.763 53.8111L656.765 72.6864L664.763 53.8111ZM643.112 125.476L653.934 142.886L643.112 125.476ZM318.602 308.861L308.553 290.993L308.133 291.228L307.726 291.484L318.602 308.861ZM318.602 390.837L316.483 411.227L318.602 390.837ZM448.857 343.33L439.169 325.264L448.857 343.33ZM608.994 247.207L619.189 264.992L608.994 247.207ZM705.411 227.318L719.906 212.822L705.411 227.318ZM688.076 293.355L674.501 277.993L688.076 293.355ZM54 1368.31L44.1705 1350.32L16.4042 1365.49L41.5982 1384.63L54 1368.31ZM667.573 1780.83L680.411 1764.85L679.425 1764.06L678.349 1763.39L667.573 1780.83ZM653.147 1868.14L651.515 1888.58L653.147 1868.14ZM100.652 1583.64L102.008 1604.1L100.652 1583.64ZM68 1667.81L54.7572 1683.46L68 1667.81ZM523.855 1964.28L534.563 1946.8L523.855 1964.28ZM100.652 1804.86L93.4306 1824.05L100.652 1804.86ZM378.024 94.8466L387.499 113.026L387.986 112.772L388.458 112.493L378.024 94.8466ZM341.231 296.134L351.282 314.001L341.231 296.134ZM22.4247 1851.12L2.30155 1855.04L22.4247 1851.12ZM140.593 663.503L121.205 670.162L140.593 663.503ZM572.573 1048.5L552.247 1045.83L572.573 1048.5ZM524.759 960.006L512.67 976.562L513.575 977.223L514.546 977.781L524.759 960.006ZM524.759 1111.09L534.588 1129.08L534.699 1129.02L534.809 1128.96L524.759 1111.09ZM204 725.807L216.089 709.251L216.051 709.223L216.013 709.196L204 725.807ZM204 591.132L214.61 608.673L204 591.132ZM144.677 636.068L127.099 625.521L144.677 636.068ZM69.1952 52.9563C103.975 91.4464 133.641 113.528 169.526 113.939C186.864 114.138 203.708 109.212 220.866 101.771C237.927 94.3713 256.756 83.8119 278.025 71.5827L257.587 36.0395C236.08 48.4063 219.175 57.8141 204.552 64.1564C190.025 70.4569 179.234 73.0479 169.996 72.9419C152.726 72.7439 133.466 62.9297 99.6155 25.468L69.1952 52.9563ZM278.025 71.5827C318.712 48.1875 352.108 40.4774 373.521 41.6066C384.239 42.1717 390.429 44.8423 393.433 47.1483C395.798 48.9633 396.732 50.8167 396.732 53.8109H437.732C437.732 37.833 430.681 24.0515 418.396 14.6231C406.75 5.6856 391.625 1.50424 375.68 0.663439C343.768 -1.01931 302.451 10.2427 257.587 36.0395L278.025 71.5827ZM153.238 190.212C146.149 194.938 132.857 205.868 123.641 219.215C119.043 225.874 114.265 234.834 113.149 245.139C111.911 256.582 115.409 268.269 124.98 277.575L153.561 248.179C153.242 247.868 153.506 248.03 153.734 248.685C153.951 249.309 153.896 249.695 153.911 249.552C153.987 248.846 154.641 246.477 157.381 242.51C162.84 234.602 171.842 227.085 175.981 224.326L153.238 190.212ZM124.98 277.575C139.848 292.03 162.788 298.032 184.6 298.412C207.126 298.805 232.258 293.357 254.45 280.676L234.108 245.078C218.872 253.785 201.124 257.694 185.315 257.418C168.792 257.13 157.942 252.438 153.561 248.179L124.98 277.575ZM254.45 280.676C286.225 262.519 479.852 143.721 589.258 83.1363L569.396 47.2686C461.114 107.231 262.219 229.015 234.108 245.078L254.45 280.676ZM589.258 83.1363C601.455 76.3819 615.409 72.226 628.295 70.6802C641.61 69.083 651.629 70.5099 656.765 72.6864L672.762 34.9359C658.606 28.9373 640.63 27.9065 623.412 29.9721C605.764 32.0891 586.645 37.7164 569.396 47.2686L589.258 83.1363ZM656.765 72.6864C664.359 75.9046 664.208 78.141 663.739 76.7888C663.308 75.5438 664.32 76.1364 662.178 80.172C657.549 88.896 645.27 99.9963 632.289 108.066L653.934 142.886C669.084 133.469 688.698 117.664 698.395 99.3906C703.417 89.9275 707.2 76.9985 702.483 63.3749C697.729 49.644 686.234 40.6447 672.762 34.9359L656.765 72.6864ZM307.726 291.484C275.178 311.854 259.232 338.825 264.796 366.196C270.013 391.861 292.842 408.77 316.483 411.227L320.721 370.446C312.064 369.547 306.086 363.497 304.974 358.028C304.209 354.264 304.412 341.926 329.477 326.238L307.726 291.484ZM316.483 411.227C342.162 413.896 372.047 403.662 396.294 393.08C421.36 382.14 445.088 368.612 458.544 361.397L439.169 325.264C424.488 333.136 402.976 345.428 379.893 355.503C355.991 365.935 334.818 371.911 320.721 370.446L316.483 411.227ZM458.544 361.397C466.156 357.315 493.072 340.76 523.821 322.008C555.153 302.901 591.484 280.874 619.189 264.992L598.798 229.422C570.538 245.622 533.747 267.932 502.474 287.004C470.62 306.43 445.449 321.896 439.169 325.264L458.544 361.397ZM619.189 264.992C628.513 259.647 642.556 249.56 659.587 242.837C677.671 235.698 686.591 237.49 690.915 241.814L719.906 212.822C696.362 189.277 664.151 196.956 644.533 204.701C623.861 212.861 603.63 226.652 598.798 229.422L619.189 264.992ZM690.915 241.814C691.667 242.565 693.782 244.95 693.957 248.575C694.095 251.423 693.309 261.374 674.501 277.993L701.65 308.716C725.941 287.252 735.859 266.223 734.909 246.592C733.997 227.739 723.231 216.146 719.906 212.822L690.915 241.814ZM654.735 1796.81C666.98 1806.65 675.036 1816.1 679.669 1824.07C684.406 1832.22 684.853 1837.5 684.497 1839.91C684.277 1841.4 683.716 1842.96 680.453 1844.67C676.449 1846.76 668.441 1848.8 654.78 1847.71L651.515 1888.58C669.667 1890.03 686.222 1887.92 699.454 1881C713.425 1873.69 722.773 1861.37 725.057 1845.9C727.207 1831.35 722.756 1816.61 715.116 1803.46C707.374 1790.14 695.574 1777.03 680.411 1764.85L654.735 1796.81ZM654.78 1847.71C617.102 1844.7 594.891 1838.32 572.927 1827.78C549.231 1816.4 527.011 1800.99 486.025 1777.04L465.342 1812.44C502.838 1834.35 529.625 1852.47 555.178 1864.74C582.463 1877.84 609.744 1885.24 651.515 1888.58L654.78 1847.71ZM486.025 1777.04C407.444 1731.13 276.118 1651.66 224.952 1615.7L201.377 1649.24C254.169 1686.34 386.959 1766.64 465.342 1812.44L486.025 1777.04ZM224.952 1615.7C174.241 1580.06 147.613 1559.98 99.2959 1563.19L102.008 1604.1C133.455 1602.01 148.129 1611.82 201.377 1649.24L224.952 1615.7ZM99.2959 1563.19C76.2524 1564.71 50.0291 1578.9 36.422 1600.51C29.2338 1611.92 25.1424 1626.17 28.0854 1641.75C31.0003 1657.18 40.3025 1671.23 54.7572 1683.46L81.2428 1652.16C71.8516 1644.21 69.0877 1637.93 68.373 1634.14C67.6865 1630.51 68.4019 1626.66 71.1136 1622.36C77.3062 1612.53 91.2548 1604.81 102.008 1604.1L99.2959 1563.19ZM54.7572 1683.46C94.5146 1717.1 169.642 1767.42 253.757 1821C338.262 1874.82 433.144 1932.75 513.146 1981.76L534.563 1946.8C454.44 1897.72 359.915 1840.01 275.784 1786.42C191.262 1732.58 118.525 1683.71 81.2428 1652.16L54.7572 1683.46ZM513.146 1981.76C514.406 1982.53 515.48 1983.81 515.602 1986.83C515.738 1990.21 514.429 1994.8 511.15 1998.79C508.07 2002.54 503.486 2005.48 497.209 2006.24C490.87 2007 481.052 2005.71 467.669 1997.69L446.607 2032.87C465.944 2044.45 484.81 2049.02 502.098 2046.94C519.448 2044.86 533.432 2036.26 542.837 2024.81C552.044 2013.6 557.137 1999.31 556.568 1985.18C555.985 1970.68 549.247 1955.8 534.563 1946.8L513.146 1981.76ZM467.669 1997.69C435.895 1978.67 351.493 1927.46 274.545 1881.42C235.663 1858.16 197.948 1835.78 168.309 1818.59C153.5 1810 140.616 1802.65 130.572 1797.12C121.133 1791.92 112.763 1787.51 107.874 1785.67L93.4306 1824.05C93.4256 1824.04 93.4609 1824.06 93.5415 1824.09C93.6209 1824.12 93.7316 1824.17 93.8762 1824.23C94.1695 1824.36 94.5558 1824.53 95.0454 1824.76C96.0319 1825.23 97.2942 1825.85 98.8503 1826.64C101.965 1828.24 105.966 1830.38 110.798 1833.04C120.449 1838.35 133.03 1845.52 147.737 1854.05C177.131 1871.1 214.656 1893.37 253.496 1916.61C331.988 1963.57 412.944 2012.72 446.607 2032.87L467.669 1997.69ZM396.732 53.8109C396.732 51.2882 397.782 51.5269 394.978 55.0995C392.608 58.12 388.979 61.61 384.639 65.1639C380.413 68.6253 376.092 71.6784 372.773 73.8923C371.132 74.9872 369.779 75.8488 368.859 76.4221C368.401 76.7082 368.053 76.9209 367.835 77.0532C367.726 77.1193 367.649 77.1652 367.608 77.1901C367.587 77.2025 367.575 77.2096 367.572 77.2113C367.571 77.2122 367.572 77.2117 367.575 77.2099C367.576 77.209 367.578 77.2077 367.581 77.2061C367.582 77.2053 367.585 77.2038 367.586 77.2034C367.588 77.2019 367.591 77.2002 378.024 94.8466C388.458 112.493 388.461 112.491 388.464 112.489C388.465 112.488 388.469 112.486 388.471 112.485C388.476 112.482 388.482 112.479 388.488 112.475C388.501 112.467 388.516 112.458 388.533 112.448C388.568 112.427 388.612 112.401 388.666 112.369C388.773 112.305 388.917 112.219 389.095 112.111C389.451 111.895 389.945 111.592 390.559 111.209C391.784 110.445 393.493 109.356 395.528 107.999C399.561 105.308 405.041 101.45 410.617 96.8843C416.079 92.411 422.252 86.758 427.233 80.4105C431.781 74.6151 437.732 65.2607 437.732 53.8109H396.732ZM378.024 94.8466C368.55 76.6675 368.549 76.668 368.547 76.6688C368.546 76.6696 368.543 76.6709 368.54 76.6725C368.534 76.6758 368.524 76.6807 368.512 76.6872C368.487 76.7002 368.45 76.7197 368.4 76.7454C368.301 76.797 368.154 76.8739 367.959 76.9753C367.57 77.1781 366.993 77.4789 366.24 77.8716C364.734 78.6569 362.524 79.8091 359.709 81.2774C354.079 84.214 346.028 88.415 336.341 93.4732C316.968 103.589 291.049 117.135 264.871 130.853C238.699 144.569 212.248 158.467 191.818 169.283C181.608 174.688 172.866 179.342 166.403 182.826C160.592 185.958 155.292 188.843 153.238 190.212L175.981 224.326C175.974 224.33 178.878 222.678 185.857 218.917C192.184 215.506 200.819 210.908 211.001 205.518C231.354 194.743 257.744 180.877 283.902 167.169C310.055 153.464 335.955 139.927 355.318 129.817C364.999 124.762 373.045 120.564 378.671 117.629C381.484 116.162 383.691 115.011 385.195 114.227C385.947 113.835 386.524 113.534 386.912 113.332C387.106 113.231 387.253 113.154 387.351 113.103C387.4 113.077 387.437 113.058 387.462 113.045C387.475 113.038 387.484 113.034 387.49 113.03C387.493 113.029 387.495 113.028 387.497 113.027C387.499 113.026 387.499 113.026 378.024 94.8466ZM632.289 108.066C619.588 115.961 403.146 237.785 331.181 278.267L351.282 314.001C422.329 274.036 640.219 151.412 653.934 142.886L632.289 108.066ZM331.181 278.267C317.004 286.241 322.733 283.019 308.554 290.992L328.649 326.73C342.83 318.756 337.103 321.977 351.282 314.001L331.181 278.267ZM328.651 326.729C333.069 324.244 338.727 321.062 343.28 318.501C345.556 317.221 347.556 316.096 348.987 315.291C349.703 314.889 350.276 314.567 350.671 314.345C350.868 314.234 351.02 314.148 351.123 314.09C351.175 314.061 351.214 314.039 351.241 314.024C351.254 314.017 351.264 314.011 351.27 314.007C351.274 314.006 351.276 314.004 351.278 314.003C351.279 314.003 351.279 314.002 351.28 314.002C351.28 314.002 351.28 314.002 351.28 314.002C351.28 314.002 351.28 314.002 341.231 296.134C331.182 278.266 331.182 278.266 331.182 278.266C331.182 278.266 331.182 278.266 331.182 278.266C331.181 278.266 331.181 278.267 331.18 278.267C331.178 278.268 331.176 278.27 331.172 278.271C331.166 278.275 331.156 278.281 331.143 278.288C331.116 278.303 331.077 278.325 331.025 278.354C330.922 278.412 330.77 278.498 330.572 278.609C330.178 278.831 329.605 279.153 328.889 279.555C327.458 280.36 325.458 281.485 323.182 282.765C318.629 285.326 312.971 288.508 308.553 290.993L328.651 326.729ZM54 1368.31C41.5982 1384.63 41.5991 1384.63 41.6007 1384.63C41.6022 1384.64 41.6045 1384.64 41.6076 1384.64C41.6137 1384.64 41.6227 1384.65 41.6347 1384.66C41.6586 1384.68 41.6943 1384.71 41.7416 1384.74C41.8363 1384.81 41.9773 1384.92 42.1635 1385.06C42.5359 1385.34 43.0891 1385.76 43.8132 1386.31C45.2615 1387.41 47.3936 1389.03 50.1313 1391.11C55.6068 1395.26 63.5048 1401.24 73.1992 1408.58C92.5869 1423.24 119.164 1443.31 147.919 1464.89C205.309 1507.98 271.746 1557.42 306.843 1581.99L330.36 1548.41C295.927 1524.3 230.064 1475.29 172.535 1432.1C143.831 1410.56 117.294 1390.52 97.9334 1375.88C88.2535 1368.56 80.3684 1362.58 74.9042 1358.44C72.1722 1356.37 70.0454 1354.75 68.6022 1353.66C67.8806 1353.11 67.33 1352.69 66.9599 1352.41C66.7749 1352.27 66.6351 1352.16 66.5417 1352.09C66.495 1352.06 66.4598 1352.03 66.4365 1352.01C66.4248 1352 66.416 1352 66.4102 1351.99C66.4073 1351.99 66.4052 1351.99 66.4038 1351.99C66.4024 1351.99 66.4018 1351.99 54 1368.31ZM306.843 1581.99C374.432 1629.32 462.191 1683.53 532.784 1725.77C568.136 1746.93 599.287 1765.14 621.605 1778.07C632.765 1784.53 641.719 1789.67 647.888 1793.2C650.973 1794.97 653.362 1796.33 654.982 1797.26C655.792 1797.72 656.41 1798.07 656.827 1798.31C657.036 1798.42 657.194 1798.51 657.301 1798.57C657.354 1798.6 657.395 1798.63 657.423 1798.64C657.436 1798.65 657.447 1798.66 657.454 1798.66C657.458 1798.66 657.461 1798.66 657.463 1798.67C657.465 1798.67 657.466 1798.67 667.573 1780.83C677.679 1763 677.679 1763 677.678 1763C677.677 1762.99 677.675 1762.99 677.672 1762.99C677.666 1762.99 677.657 1762.98 677.645 1762.98C677.62 1762.96 677.582 1762.94 677.532 1762.91C677.431 1762.86 677.279 1762.77 677.076 1762.65C676.671 1762.42 676.066 1762.08 675.268 1761.63C673.673 1760.72 671.311 1759.37 668.254 1757.62C662.14 1754.12 653.247 1749.01 642.154 1742.59C619.965 1729.74 588.986 1711.62 553.836 1690.59C483.424 1648.46 396.698 1594.86 330.36 1548.41L306.843 1581.99ZM678.349 1763.39L329.377 1547.76L307.826 1582.64L656.797 1798.27L678.349 1763.39ZM107.874 1785.67C88.1054 1778.23 60.7851 1777.11 38.6055 1786.12C27.1365 1790.78 15.8888 1798.65 8.58839 1811.02C1.14497 1823.63 -0.877024 1838.69 2.30155 1855.04L42.5478 1847.21C40.9296 1838.89 42.4139 1834.37 43.8965 1831.86C45.5221 1829.11 48.6202 1826.31 54.0334 1824.11C65.6183 1819.4 82.2084 1819.82 93.4306 1824.05L107.874 1785.67ZM2.30155 1855.04C3.85535 1863.03 8.48905 1869.82 12.394 1874.68C16.6858 1880.01 22.1926 1885.52 28.351 1891.04C40.7046 1902.12 57.3801 1914.76 76.5918 1928.2C115.121 1955.16 165.745 1986.63 216.995 2017.19C268.325 2047.8 320.638 2077.71 362.676 2101.55C405.11 2125.61 436.292 2143.06 446.354 2149.29L467.922 2114.42C456.975 2107.65 424.47 2089.46 382.901 2065.88C340.937 2042.08 288.933 2012.35 237.994 1981.98C186.974 1951.55 137.376 1920.69 100.095 1894.61C81.4008 1881.53 66.2737 1869.98 55.7227 1860.52C50.4287 1855.77 46.7078 1851.92 44.3457 1848.99C41.5968 1845.57 42.1506 1845.17 42.5478 1847.21L2.30155 1855.04ZM524.759 960.006C514.546 977.781 514.539 977.777 514.533 977.773C514.531 977.772 514.524 977.768 514.52 977.766C514.512 977.761 514.505 977.757 514.498 977.753C514.486 977.746 514.476 977.741 514.47 977.737C514.457 977.729 514.457 977.729 514.469 977.736C514.493 977.751 514.565 977.794 514.683 977.866C514.918 978.009 515.332 978.267 515.896 978.636C517.029 979.377 518.75 980.555 520.845 982.153C525.073 985.378 530.613 990.153 535.896 996.316C546.501 1008.69 554.959 1025.18 552.247 1045.83L592.898 1051.17C597.639 1015.07 582.19 987.323 567.024 969.632C559.422 960.764 551.612 954.055 545.71 949.554C542.741 947.289 540.202 945.543 538.341 944.325C537.409 943.716 536.643 943.236 536.072 942.887C535.786 942.712 535.549 942.57 535.365 942.461C535.272 942.406 535.193 942.36 535.127 942.321C535.094 942.302 535.065 942.285 535.039 942.27C535.026 942.262 535.013 942.255 535.002 942.249C534.996 942.245 534.989 942.241 534.986 942.239C534.978 942.235 534.971 942.23 524.759 960.006ZM552.247 1045.83C550.598 1058.38 542.465 1069.99 532.596 1079.43C527.865 1083.96 523.222 1087.52 519.773 1089.93C518.063 1091.12 516.683 1092.01 515.782 1092.57C515.333 1092.85 515.006 1093.04 514.82 1093.15C514.727 1093.21 514.669 1093.24 514.65 1093.25C514.64 1093.26 514.64 1093.26 514.649 1093.25C514.654 1093.25 514.661 1093.25 514.671 1093.24C514.676 1093.24 514.682 1093.24 514.688 1093.23C514.691 1093.23 514.696 1093.23 514.697 1093.23C514.703 1093.22 514.708 1093.22 524.759 1111.09C534.809 1128.96 534.815 1128.95 534.821 1128.95C534.823 1128.95 534.829 1128.94 534.833 1128.94C534.842 1128.94 534.851 1128.93 534.861 1128.93C534.882 1128.91 534.904 1128.9 534.93 1128.89C534.98 1128.86 535.042 1128.82 535.113 1128.78C535.255 1128.7 535.439 1128.59 535.66 1128.46C536.103 1128.2 536.699 1127.84 537.428 1127.39C538.885 1126.48 540.885 1125.19 543.262 1123.53C547.988 1120.23 554.349 1115.36 560.938 1109.06C573.711 1096.84 589.485 1077.16 592.898 1051.17L552.247 1045.83ZM514.929 1093.1L44.1705 1350.32L63.8295 1386.3L534.588 1129.08L514.929 1093.1ZM121.205 670.162C124.562 679.939 132.05 689.225 138.562 696.327C145.622 704.026 153.981 711.717 161.739 718.398C169.556 725.129 177.082 731.105 182.631 735.384C185.415 737.531 187.722 739.266 189.347 740.475C190.16 741.08 190.804 741.554 191.252 741.883C191.476 742.047 191.652 742.175 191.775 742.265C191.837 742.31 191.886 742.345 191.921 742.371C191.939 742.384 191.954 742.394 191.965 742.402C191.97 742.406 191.975 742.41 191.979 742.413C191.98 742.414 191.983 742.415 191.984 742.416C191.986 742.418 191.987 742.419 204 725.807C216.013 709.196 216.014 709.197 216.015 709.197C216.015 709.197 216.016 709.198 216.016 709.198C216.017 709.199 216.016 709.198 216.015 709.197C216.012 709.195 216.007 709.191 215.997 709.185C215.979 709.171 215.948 709.148 215.904 709.116C215.815 709.052 215.676 708.95 215.489 708.813C215.115 708.539 214.55 708.123 213.82 707.58C212.359 706.494 210.242 704.901 207.668 702.916C202.503 698.934 195.587 693.438 188.491 687.328C181.338 681.169 174.315 674.652 168.781 668.617C166.02 665.606 163.835 662.937 162.251 660.681C161.468 659.567 160.905 658.656 160.515 657.947C160.324 657.599 160.191 657.328 160.102 657.132C160.013 656.935 159.98 656.841 159.982 656.845L121.205 670.162ZM191.911 742.364L512.67 976.562L536.847 943.449L216.089 709.251L191.911 742.364ZM674.501 277.993C674.636 277.874 673.599 278.709 670.273 280.981C667.331 282.991 663.323 285.639 658.299 288.894C648.266 295.393 634.526 304.085 617.871 314.495C584.581 335.302 539.926 362.796 490.615 392.971C392.007 453.31 274.963 524.252 193.39 573.591L214.61 608.673C296.198 559.324 413.314 488.339 512.014 427.943C561.357 397.749 606.144 370.174 639.601 349.262C656.32 338.812 670.28 329.983 680.589 323.305C690.08 317.157 698.236 311.734 701.65 308.716L674.501 277.993ZM193.39 573.591C172.57 586.184 158.309 595.601 148.374 603.302C138.381 611.047 131.695 617.86 127.099 625.521L162.256 646.615C163.196 645.049 165.529 641.879 173.492 635.706C181.513 629.489 194.146 621.051 214.61 608.673L193.39 573.591ZM127.099 625.521C119.322 638.482 115.488 653.517 121.205 670.162L159.982 656.845C159.214 654.609 158.886 652.231 162.256 646.615L127.099 625.521Z" fill="url(#paint0_linear_402_1153)"/>
<defs>
<linearGradient id="paint0_linear_402_1153" x1="90.3234" y1="21" x2="190.373" y2="1963.85" gradientUnits="userSpaceOnUse">
<stop stop-color="#3A36FF" stop-opacity="0"/>
<stop offset="0.229167" stop-color="#3A36FF"/>
<stop offset="0.872558" stop-color="#3A36FF"/>
<stop offset="1" stop-color="#3A36FF" stop-opacity="0"/>
</linearGradient>
</defs>
</svg>
