<svg width="135" height="135" viewBox="0 0 135 135" fill="none" xmlns="http://www.w3.org/2000/svg">
<path d="M135 9.49237H0V93.8673H58.8616L57.1358 112.852H48.5157C45.0263 112.852 42.1876 115.69 42.1876 119.18C42.1876 122.669 45.0263 125.508 48.5157 125.508H86.4843C89.9737 125.508 92.8124 122.669 92.8124 119.18C92.8124 115.69 89.9737 112.852 86.4843 112.852H77.8642L76.1384 93.8673H135V9.49237ZM86.4843 117.07C87.6473 117.07 88.5937 118.017 88.5937 119.18C88.5937 120.343 87.647 121.289 86.4843 121.289H48.5157C47.3527 121.289 46.4063 120.343 46.4063 119.18C46.4063 118.017 47.353 117.07 48.5157 117.07H86.4843ZM61.3727 112.852L63.0985 93.8671H71.9012L73.6273 112.852H61.3727ZM130.781 89.6486H4.21871V13.7108H130.781V89.6486Z" fill="white"/>
<path d="M37.9687 81.211H10.5469V85.4297H37.9687V81.211Z" fill="white"/>
<path d="M46.4062 81.211H42.1875V85.4297H46.4062V81.211Z" fill="white"/>
<path d="M54.8437 81.211H50.625V85.4297H54.8437V81.211Z" fill="white"/>
<path d="M63.2812 81.211H59.0625V85.4297H63.2812V81.211Z" fill="white"/>
<path d="M95.3586 35.2415L92.376 32.2589L62.8451 61.7897L65.8278 64.7724L95.3586 35.2415Z" fill="white"/>
<path d="M83.9388 57.5732L86.9216 60.556L95.359 52.1187L92.3761 49.1358L83.9388 57.5732Z" fill="white"/>
<path d="M121.725 25.7496L118.742 22.767L96.5944 44.915L99.5771 47.8976L121.725 25.7496Z" fill="white"/>
<path d="M71.7187 17.9301H63.2812V22.1488H71.7187V17.9301Z" fill="white"/>
</svg>
