<svg width="144" height="32" viewBox="0 0 144 32" fill="none" xmlns="http://www.w3.org/2000/svg">
<g clip-path="url(#clip0_491_157)">
<path d="M44.923 31.9567V0.668696H46.6202V5.59033C46.8206 5.3721 47.0056 5.14029 47.1741 4.89655C48.5915 1.95579 51.5812 0.0998226 54.8451 0.13648C58.7145 0.0210764 61.8589 1.45344 63.7067 4.89655C64.8826 7.03556 65.5296 9.42483 65.5939 11.8649C65.6581 14.3049 65.1377 16.725 64.076 18.9229C62.3545 22.7814 58.1022 24.6998 53.5498 23.9952C52.1331 23.8748 50.7691 23.4014 49.5823 22.6183C48.3956 21.8352 47.4239 20.7673 46.7559 19.5121V31.9554L44.923 31.9567ZM46.6202 11.7366L47.0003 15.4105C47.671 19.5922 50.1434 22.0632 54.025 22.5275C55.8479 22.8272 57.7182 22.4855 59.3173 21.5606C60.9164 20.6356 62.1452 19.1847 62.7943 17.4552C64.3041 13.8573 64.1928 9.78424 62.4957 6.27053C61.8029 4.72016 60.6243 3.43741 59.138 2.61612C57.6517 1.79484 55.9385 1.47965 54.2572 1.71819C52.679 1.833 51.1758 2.43645 49.9564 3.44472C48.7369 4.45299 47.8617 5.81602 47.4524 7.34447C47.091 8.79088 46.8131 10.2569 46.6202 11.7352V11.7366ZM100.246 15.9889C99.9889 18.1919 98.9402 20.2264 97.2952 21.714C95.6502 23.2017 93.5208 24.0413 91.3032 24.0767C84.1862 24.4351 80.8462 19.709 80.3154 14.2551C79.9462 11.2934 80.427 8.28777 81.7016 5.58897C82.5887 3.73761 84.0422 2.21673 85.8514 1.24667C87.6607 0.276615 89.7318 -0.0922534 91.7648 0.193503C93.6974 0.357775 95.5295 1.12568 97.0016 2.38855C98.4738 3.65141 99.5115 5.34528 99.968 7.23042C100.33 8.94768 100.596 10.6837 100.765 12.4304H82.0736C81.7274 17.3751 84.3844 21.3504 88.1506 22.309C92.8414 23.463 96.8507 21.4305 98.3062 16.9705C98.6293 15.826 99.2185 15.6644 100.259 15.9889H100.246ZM82.06 10.8473H98.7786C98.6741 5.57947 95.3939 1.75078 90.9447 1.70733C85.9213 1.62587 82.2786 5.30114 82.06 10.8473ZM103.702 16.1043H105.34C105.401 17.3116 105.793 18.4789 106.473 19.4778C107.154 20.4766 108.097 21.2684 109.199 21.7659C110.582 22.3884 112.088 22.691 113.605 22.651C115.121 22.611 116.609 22.2296 117.957 21.5351C118.693 21.2041 119.308 20.6554 119.722 19.9631C120.135 19.2709 120.326 18.4685 120.268 17.6643C120.31 16.8887 120.099 16.1205 119.665 15.4762C119.231 14.8318 118.599 14.3464 117.865 14.0936C116.062 13.4229 114.145 13.0536 112.308 12.4643C110.397 11.9201 108.527 11.2367 106.716 10.4196C103.756 8.97506 103.573 3.34878 106.923 1.56749C108.639 0.599332 110.57 0.0762107 112.54 0.0458549C114.51 0.0154991 116.456 0.478875 118.2 1.3937C120.365 2.58847 121.561 5.00109 121.205 7.44901H119.8C119.8 7.38113 119.672 7.32139 119.672 7.25214C119.498 2.77176 115.732 1.37062 111.689 1.76435C110.467 1.90012 109.309 2.26941 108.223 2.81521C107.57 3.11338 107.026 3.60713 106.666 4.22811C106.306 4.8491 106.148 5.56662 106.213 6.28139C106.215 6.9967 106.438 7.69403 106.851 8.27751C107.265 8.86099 107.85 9.30198 108.524 9.53986C110.289 10.1875 112.163 10.6029 113.989 11.1107L118.401 12.2647C119.404 12.5939 120.284 13.2198 120.923 14.0596C121.563 14.8993 121.932 15.9135 121.983 16.9678C122.336 19.337 121.128 21.6654 118.991 22.7448C115.132 24.9279 108.777 24.3509 105.946 21.5907C104.497 20.1339 103.689 18.1558 103.706 16.1029L103.702 16.1043ZM142.776 7.45037H141.239C141.239 7.24264 141.158 7.04306 141.135 6.88421C141.11 5.73217 140.69 4.62359 139.945 3.74433C139.201 2.86507 138.176 2.26859 137.044 2.0549C134.908 1.44227 132.629 1.55204 130.562 2.36717C129.745 2.60109 129.025 3.09331 128.511 3.77023C127.996 4.44714 127.715 5.27237 127.708 6.12255C127.679 6.95733 127.939 7.77661 128.444 8.44184C128.949 9.10707 129.669 9.57742 130.481 9.77338L137.505 11.5764C138.265 11.7586 139.013 11.9862 139.746 12.258C141.986 13.0726 143.506 15.1526 143.574 17.5299C143.608 18.6935 143.289 19.8401 142.659 20.8191C142.029 21.798 141.117 22.5635 140.044 23.015C138.414 23.7556 136.647 24.1474 134.856 24.1654C133.065 24.1834 131.291 23.8272 129.646 23.1195C128.293 22.5362 127.151 21.5524 126.375 20.3006C125.598 19.0488 125.223 17.589 125.301 16.1179H126.803C127.368 18.84 129.237 21.1074 131.802 22.18C134.366 23.2525 137.295 22.9892 139.628 21.4794C140.327 21.1155 140.908 20.5586 141.301 19.8748C141.695 19.1909 141.884 18.4088 141.846 17.6208C141.881 16.8447 141.662 16.0785 141.221 15.4382C140.781 14.798 140.145 14.3188 139.408 14.0732C137.605 13.4025 135.687 13.0454 133.851 12.444C131.928 11.9081 130.048 11.2325 128.224 10.4224C125.335 9.00085 125.104 3.42074 128.398 1.6408C130.135 0.632015 132.104 0.0900678 134.112 0.0677033C136.121 0.0453387 138.101 0.543319 139.86 1.51318C140.866 2.11363 141.676 2.99366 142.19 4.04611C142.705 5.09856 142.903 6.27802 142.76 7.44086L142.776 7.45037ZM42.1303 23.5119C41.5253 23.7406 40.8575 23.74 40.253 23.5102C39.6484 23.2803 39.1489 22.8371 38.8487 22.2641L32.8749 14.0026L32.0087 12.8486L25.0763 22.2764C24.7938 22.8247 24.3213 23.2513 23.7471 23.4767C23.173 23.7021 22.5364 23.7107 21.9563 23.501L30.8872 11.5194L22.5782 0.693134C23.8109 0.247811 25.1849 0.73115 25.8706 1.84717L32.0616 10.2106L38.2894 1.87976C38.574 1.34087 39.0468 0.925398 39.6178 0.712367C40.1888 0.499335 40.8182 0.503605 41.3863 0.724362L38.1617 5.00245L33.794 10.6871C33.6728 10.7954 33.5758 10.928 33.5094 11.0763C33.443 11.2247 33.4087 11.3854 33.4087 11.5479C33.4087 11.7104 33.443 11.8711 33.5094 12.0194C33.5758 12.1678 33.6728 12.3004 33.794 12.4087L42.1126 23.5119H42.1303ZM80.0506 0.577731V2.20696C78.882 2.13031 77.7103 2.29954 76.6112 2.70373C75.512 3.10792 74.5098 3.73808 73.6693 4.55355C72.8288 5.36902 72.1685 6.35167 71.7313 7.43807C71.294 8.52448 71.0894 9.69051 71.1306 10.8609C71.1306 14.666 71.1306 18.4712 71.1306 22.2764V23.5702H69.4783V0.679557H71.1075V5.37038C73.106 1.949 76.1907 0.679558 80.0615 0.587235L80.0506 0.577731ZM0.571319 11.37L1.29904 7.77622C3.29756 0.670054 11.4437 -2.287 17.0483 2.11464C20.3298 4.69154 21.1485 8.34237 20.9883 12.4562H2.5006C2.20191 19.804 7.5037 24.2409 14.2854 21.9763C16.5201 21.1617 18.2023 19.3044 18.7562 16.9963C19.1147 15.8423 19.7066 15.644 20.7901 15.978C20.6094 17.3848 20.1121 18.7322 19.3356 19.9191C18.5591 21.106 17.5236 22.1013 16.307 22.8303C14.297 23.9295 11.9909 24.3651 9.71844 24.0747C7.44599 23.7842 5.32356 22.7827 3.65464 21.2133C2.00368 19.3573 1.00714 17.0112 0.812989 14.5334C0.812989 14.1261 0.677219 13.746 0.582181 13.3794C0.573129 12.6942 0.568604 12.0244 0.568604 11.37H0.571319ZM2.52368 10.8731H19.2423C19.1378 5.54688 15.7761 1.76843 11.293 1.73313C6.30214 1.66524 2.73141 5.36088 2.51146 10.85L2.52368 10.8731Z" fill="white"/>
</g>
<defs>
<clipPath id="clip0_491_157">
<rect width="143.385" height="32" fill="white" transform="translate(0.307678)"/>
</clipPath>
</defs>
</svg>
