<svg width="65" height="64" viewBox="0 0 65 64" fill="none" xmlns="http://www.w3.org/2000/svg">
<path d="M11.8411 41.1725L17.7723 3.16377C17.9773 1.86752 19.7161 1.56127 20.3298 2.72002L26.7048 14.6513L11.8411 41.1725ZM54.1923 50L48.3498 15.4013C48.3075 15.154 48.1982 14.923 48.034 14.7333C47.8697 14.5436 47.6567 14.4025 47.4179 14.3253C47.1792 14.248 46.9239 14.2375 46.6797 14.295C46.4354 14.3525 46.2116 14.4757 46.0323 14.6513L10.1923 50L30.1123 61.4888C30.7236 61.824 31.4095 61.9998 32.1067 61.9998C32.8039 61.9998 33.4898 61.824 34.1011 61.4888L54.1923 50ZM37.9873 19.8663L33.4198 11.1738C33.3063 10.9505 33.1331 10.7629 32.9195 10.632C32.706 10.501 32.4603 10.4317 32.2098 10.4317C31.9593 10.4317 31.7137 10.501 31.5001 10.632C31.2865 10.7629 31.1134 10.9505 30.9998 11.1738L10.9211 46.9675L37.9873 19.8663Z" fill="white"/>
</svg>
