<svg width="154" height="16" viewBox="0 0 154 16" fill="none" xmlns="http://www.w3.org/2000/svg">
<path d="M0 15.8232V0.132596H10.6519V3.31492H3.62431V6.69613H9.41436V9.63536H3.62431V15.8232H0Z" fill="white"/>
<path d="M12.5573 15.8232V0.132596H16.1816V12.6409H23.7838V15.8232H12.5573Z" fill="white"/>
<path d="M29.4156 0.132596H33.3272L38.7195 15.8232H35.0068L33.7913 12.3094H28.9073L27.714 15.8232H24.0013L29.4156 0.132596ZM33.1946 9.81216L31.3604 3.77901L29.4819 9.81216H33.1946Z" fill="white"/>
<path d="M40.24 15.8232V0.132596H43.8643V15.8232H40.24Z" fill="white"/>
<path d="M46.8407 15.8232V0.132596H53.9126C54.6492 0.132596 55.3269 0.287292 55.9457 0.596685C56.5792 0.891344 57.1243 1.2965 57.5811 1.81216C58.0378 2.31308 58.3914 2.88029 58.6418 3.51381C58.907 4.14733 59.0396 4.78821 59.0396 5.43646C59.0396 6.08471 58.9365 6.7035 58.7302 7.29282C58.524 7.8674 58.2293 8.39042 57.8463 8.86188C57.4632 9.3186 57.0065 9.69429 56.4761 9.98895L59.9236 15.8232H55.9236L52.9181 10.7624H50.465V15.8232H46.8407ZM50.465 7.60221H53.78C54.0746 7.60221 54.3324 7.51381 54.5534 7.33702C54.7892 7.14549 54.9807 6.88766 55.128 6.56354C55.2754 6.23941 55.349 5.86372 55.349 5.43646C55.349 5.00921 55.2606 4.64088 55.0838 4.33149C54.9218 4.00737 54.7155 3.75691 54.465 3.58011C54.2146 3.40331 53.9494 3.31492 53.6695 3.31492H50.465V7.60221Z" fill="white"/>
<path d="M68.1217 15.9337C67.0904 15.9337 66.1181 15.7422 65.2046 15.3591C64.2912 14.9613 63.4882 14.4088 62.7958 13.7017C62.1033 12.9797 61.5582 12.1326 61.1604 11.1602C60.7774 10.1731 60.5858 9.07551 60.5858 7.8674C60.5858 6.77716 60.7847 5.76059 61.1825 4.81768C61.5803 3.87477 62.1328 3.04236 62.84 2.32044C63.5472 1.59853 64.3722 1.03867 65.3151 0.640884C66.2728 0.228361 67.3041 0.0220991 68.409 0.0220991C69.8529 0.0220991 71.1273 0.331491 72.2322 0.950276C73.3372 1.56906 74.1549 2.40147 74.6853 3.44751L71.9892 5.48066C71.6356 4.78821 71.1199 4.24309 70.4422 3.8453C69.7792 3.44751 69.0573 3.24862 68.2764 3.24862C67.6871 3.24862 67.142 3.37385 66.6411 3.62431C66.1549 3.86004 65.7276 4.1989 65.3593 4.64088C65.0057 5.06814 64.7332 5.56906 64.5416 6.14365C64.3501 6.71823 64.2543 7.33702 64.2543 8C64.2543 8.67772 64.3575 9.30387 64.5637 9.87845C64.77 10.453 65.0573 10.954 65.4256 11.3812C65.7939 11.7937 66.2286 12.1179 66.7295 12.3536C67.2451 12.5893 67.8124 12.7072 68.4311 12.7072C69.1825 12.7072 69.8971 12.523 70.5748 12.1547C71.2672 11.7716 71.9008 11.2118 72.4753 10.4751V14.0552C71.223 15.3076 69.7718 15.9337 68.1217 15.9337ZM72.2543 10.2541H69.2046V7.62431H75.2599V15.8232H72.2543V10.2541Z" fill="white"/>
<path d="M84.5041 15.9558C83.3255 15.9558 82.2573 15.7348 81.2997 15.2928C80.3568 14.8361 79.5391 14.232 78.8467 13.4807C78.1689 12.7145 77.6459 11.86 77.2776 10.9171C76.9093 9.95949 76.7251 8.97238 76.7251 7.9558C76.7251 6.90976 76.9166 5.91529 77.2997 4.97238C77.6975 4.02947 78.2426 3.18969 78.9351 2.45304C79.6422 1.70166 80.4746 1.11234 81.4323 0.685082C82.3899 0.257826 83.436 0.0441982 84.5704 0.0441982C85.7343 0.0441982 86.7877 0.272559 87.7306 0.729281C88.6883 1.17127 89.506 1.77532 90.1837 2.54144C90.8761 3.30755 91.4065 4.16943 91.7748 5.12707C92.1432 6.06998 92.3273 7.03499 92.3273 8.0221C92.3273 9.06814 92.1358 10.0626 91.7527 11.0055C91.3697 11.9484 90.8246 12.7956 90.1174 13.547C89.4102 14.2836 88.5778 14.8729 87.6201 15.3149C86.6772 15.7422 85.6386 15.9558 84.5041 15.9558ZM80.4157 8C80.4157 8.60405 80.5041 9.19337 80.6809 9.76796C80.8577 10.3278 81.1155 10.8287 81.4544 11.2707C81.808 11.7127 82.2426 12.0663 82.7583 12.3315C83.2739 12.5967 83.8632 12.7293 84.5262 12.7293C85.2187 12.7293 85.8227 12.5967 86.3384 12.3315C86.854 12.0516 87.2813 11.6832 87.6201 11.2265C87.959 10.7698 88.2095 10.2615 88.3715 9.70166C88.5483 9.12707 88.6367 8.54512 88.6367 7.9558C88.6367 7.35175 88.5483 6.7698 88.3715 6.20994C88.1947 5.65009 87.9295 5.14917 87.5759 4.70718C87.2223 4.25046 86.7877 3.89687 86.2721 3.64641C85.7564 3.39595 85.1745 3.27072 84.5262 3.27072C83.8338 3.27072 83.2297 3.40332 82.7141 3.66851C82.2131 3.9337 81.7859 4.29466 81.4323 4.75138C81.0934 5.19337 80.8356 5.70166 80.6588 6.27624C80.4967 6.8361 80.4157 7.41068 80.4157 8Z" fill="white"/>
<path d="M99.5301 15.8232V0.132596H103.154V12.6409H110.757V15.8232H99.5301Z" fill="white"/>
<path d="M116.388 0.132596H120.3L125.692 15.8232H121.98L120.764 12.3094H115.88L114.687 15.8232H110.974L116.388 0.132596ZM120.167 9.81216L118.333 3.77901L116.455 9.81216H120.167Z" fill="white"/>
<path d="M140.185 11.8011C140.185 12.6998 139.942 13.4512 139.456 14.0552C138.984 14.6446 138.344 15.0866 137.533 15.3812C136.723 15.6759 135.832 15.8232 134.859 15.8232H127.213V0.132596H135.942C136.679 0.132596 137.312 0.331491 137.843 0.729281C138.388 1.11234 138.8 1.61326 139.08 2.23204C139.375 2.85083 139.522 3.49171 139.522 4.1547C139.522 4.89134 139.331 5.59853 138.948 6.27624C138.565 6.93923 138.005 7.44015 137.268 7.77901C138.167 8.0442 138.874 8.51565 139.39 9.19337C139.92 9.87109 140.185 10.7403 140.185 11.8011ZM136.495 11.0718C136.495 10.733 136.428 10.4383 136.296 10.1878C136.163 9.92265 135.986 9.71639 135.765 9.56906C135.559 9.407 135.309 9.32597 135.014 9.32597H130.837V12.7514H134.859C135.169 12.7514 135.441 12.6777 135.677 12.5304C135.927 12.3831 136.126 12.1842 136.274 11.9337C136.421 11.6832 136.495 11.3959 136.495 11.0718ZM130.837 3.22652V6.47514H134.395C134.66 6.47514 134.903 6.41621 135.124 6.29834C135.36 6.18048 135.552 6.00368 135.699 5.76796C135.846 5.5175 135.92 5.2081 135.92 4.83978C135.92 4.48619 135.854 4.19153 135.721 3.9558C135.603 3.72007 135.441 3.54328 135.235 3.42541C135.029 3.29282 134.793 3.22652 134.528 3.22652H130.837Z" fill="white"/>
<path d="M151.709 4.72928C151.665 4.65562 151.511 4.54512 151.245 4.39779C150.98 4.23573 150.649 4.0663 150.251 3.8895C149.853 3.71271 149.418 3.55801 148.947 3.42541C148.476 3.29282 148.004 3.22652 147.533 3.22652C146.914 3.22652 146.435 3.33702 146.096 3.55801C145.757 3.76427 145.588 4.0884 145.588 4.53039C145.588 4.88398 145.713 5.1639 145.964 5.37017C146.229 5.57643 146.604 5.76059 147.091 5.92265C147.577 6.06998 148.174 6.24678 148.881 6.45304C149.883 6.71823 150.752 7.04236 151.488 7.42541C152.225 7.79374 152.785 8.27256 153.168 8.86188C153.566 9.4512 153.765 10.232 153.765 11.2044C153.765 12.0884 153.603 12.8398 153.278 13.4586C152.954 14.0626 152.512 14.5562 151.953 14.9392C151.407 15.3076 150.781 15.5801 150.074 15.7569C149.367 15.919 148.638 16 147.886 16C147.12 16 146.332 15.9263 145.522 15.779C144.726 15.6169 143.96 15.3959 143.223 15.116C142.487 14.8214 141.809 14.4678 141.19 14.0552L142.781 10.895C142.84 10.9687 143.032 11.1087 143.356 11.3149C143.68 11.5064 144.078 11.7127 144.549 11.9337C145.035 12.14 145.573 12.3241 146.162 12.4862C146.752 12.6483 147.348 12.7293 147.953 12.7293C148.601 12.7293 149.08 12.6262 149.389 12.4199C149.713 12.2136 149.875 11.9263 149.875 11.558C149.875 11.1602 149.706 10.8508 149.367 10.6298C149.043 10.4088 148.593 10.2099 148.019 10.0331C147.459 9.85635 146.811 9.65746 146.074 9.43646C145.116 9.1418 144.321 8.81031 143.687 8.44199C143.069 8.07367 142.604 7.62431 142.295 7.09392C142 6.56354 141.853 5.90055 141.853 5.10497C141.853 4 142.111 3.07182 142.627 2.32044C143.157 1.55433 143.864 0.979742 144.748 0.596685C145.632 0.198895 146.597 0 147.643 0C148.38 0 149.087 0.0883973 149.765 0.265192C150.457 0.441988 151.098 0.662983 151.687 0.928176C152.291 1.19337 152.829 1.45856 153.301 1.72376L151.709 4.72928Z" fill="white"/>
</svg>
