<svg width="135" height="135" viewBox="0 0 135 135" fill="none" xmlns="http://www.w3.org/2000/svg">
<g clip-path="url(#clip0_16_280)">
<path d="M6.32812 135H65.3906C66.555 135 67.5 134.055 67.5 132.891C67.5 131.726 66.555 130.781 65.3906 130.781H6.32812C5.16375 130.781 4.21875 129.836 4.21875 128.672V6.32812C4.21875 5.16375 5.16375 4.21875 6.32812 4.21875H94.9219C96.0863 4.21875 97.0312 5.16375 97.0312 6.32812V27.4219C97.0312 28.5863 97.9762 29.5312 99.1406 29.5312C100.305 29.5312 101.25 28.5863 101.25 27.4219V6.32812C101.25 2.83922 98.4108 0 94.9219 0H6.32812C2.83922 0 0 2.83922 0 6.32812V128.672C0 132.161 2.83922 135 6.32812 135Z" fill="white"/>
<path d="M75.9375 44.2969V128.672C75.9375 132.161 78.7767 135 82.2656 135H128.672C132.161 135 135 132.161 135 128.672V44.2969C135 40.808 132.161 37.9688 128.672 37.9688H82.2656C78.7767 37.9688 75.9375 40.808 75.9375 44.2969ZM130.781 44.2969V128.672C130.781 129.836 129.836 130.781 128.672 130.781H82.2656C81.1013 130.781 80.1562 129.836 80.1562 128.672V44.2969C80.1562 43.1325 81.1013 42.1875 82.2656 42.1875H128.672C129.836 42.1875 130.781 43.1325 130.781 44.2969Z" fill="white"/>
<path d="M50.625 122.344C52.955 122.344 54.8438 120.455 54.8438 118.125C54.8438 115.795 52.955 113.906 50.625 113.906C48.295 113.906 46.4062 115.795 46.4062 118.125C46.4062 120.455 48.295 122.344 50.625 122.344Z" fill="white"/>
<path d="M105.469 122.344C107.799 122.344 109.688 120.455 109.688 118.125C109.688 115.795 107.799 113.906 105.469 113.906C103.139 113.906 101.25 115.795 101.25 118.125C101.25 120.455 103.139 122.344 105.469 122.344Z" fill="white"/>
</g>
<defs>
<clipPath id="clip0_16_280">
<rect width="135" height="135" fill="white"/>
</clipPath>
</defs>
</svg>
