<svg width="65" height="65" viewBox="0 0 65 65" fill="none" xmlns="http://www.w3.org/2000/svg">
<path d="M48.3057 60.01C48.0677 60.136 48.0877 60.176 48.3157 60.06C48.3859 60.0313 48.4503 59.99 48.5057 59.938C48.5057 59.896 48.5057 59.896 48.3057 60.01V60.01ZM48.7857 59.75C48.6717 59.844 48.6717 59.844 48.8077 59.782C48.8579 59.7585 48.9039 59.7267 48.9437 59.688C48.9437 59.634 48.9117 59.646 48.7857 59.75V59.75ZM49.0977 59.562C48.9837 59.656 48.9837 59.656 49.1197 59.594C49.1701 59.57 49.2161 59.5375 49.2557 59.498C49.2557 59.448 49.2237 59.458 49.0977 59.562ZM49.4137 59.376C49.2997 59.47 49.2997 59.47 49.4317 59.406C49.5057 59.366 49.5677 59.324 49.5677 59.312C49.5677 59.262 49.5357 59.272 49.4137 59.376ZM49.8397 59.094C49.6217 59.24 49.5457 59.334 49.7457 59.23C49.8797 59.148 50.1077 58.968 50.0677 58.968C49.9817 59 49.9097 59.054 49.8377 59.094H49.8397ZM30.7137 0.0220243C30.5677 0.0320243 30.1297 0.0720243 29.7457 0.104024C20.6497 0.928024 12.1397 5.82402 6.74568 13.366C3.76481 17.5025 1.82719 22.2978 1.09768 27.344C0.839678 29.104 0.807678 29.624 0.807678 32.01C0.807678 34.394 0.839678 34.906 1.09768 36.666C2.83968 48.688 11.3917 58.78 22.9837 62.52C25.0697 63.186 27.2557 63.646 29.7457 63.928C30.7137 64.032 34.8997 64.032 35.8677 63.928C40.1717 63.448 43.8057 62.386 47.4017 60.552C47.9537 60.272 48.0577 60.198 47.9837 60.136C46.2295 57.8172 44.4901 55.4871 42.7657 53.146L37.6517 46.24L31.2457 36.75C29.1148 33.5726 26.9621 30.4098 24.7877 27.262C24.7657 27.262 24.7377 31.48 24.7257 36.624C24.7037 45.634 24.7037 46 24.5897 46.208C24.4804 46.4593 24.2845 46.663 24.0377 46.782C23.8397 46.876 23.6617 46.896 22.7157 46.896H21.6337L21.3517 46.72C21.1751 46.6067 21.0315 46.4487 20.9357 46.262L20.7997 45.98L20.8097 33.438L20.8317 20.896L21.0297 20.646C21.1561 20.4923 21.3118 20.3652 21.4877 20.272C21.7497 20.146 21.8537 20.126 22.9357 20.126C24.2057 20.126 24.4157 20.176 24.7497 20.542C27.3447 24.4018 29.9175 28.2765 32.4677 32.166C36.6257 38.47 42.3017 47.072 45.0917 51.292L50.1657 58.97L50.4157 58.804C52.8542 57.1836 55.0639 55.2429 56.9857 53.034C61.0168 48.4202 63.6325 42.7422 64.5197 36.68C64.7777 34.92 64.8097 34.398 64.8097 32.014C64.8097 29.628 64.7777 29.118 64.5197 27.358C62.7777 15.336 54.2257 5.24402 42.6337 1.50202C40.4672 0.815866 38.2374 0.34886 35.9777 0.108024C35.3717 0.0460243 31.2357 -0.0279757 30.7157 0.0260243L30.7137 0.0220243ZM43.8077 19.376C43.9565 19.4491 44.0892 19.5511 44.198 19.6761C44.3069 19.8011 44.3897 19.9466 44.4417 20.104C44.4957 20.272 44.5057 23.75 44.4957 31.584L44.4737 42.832L42.4957 39.792L40.5057 36.75V28.584C40.5057 23.29 40.5277 20.322 40.5557 20.176C40.6536 19.8413 40.8781 19.5579 41.1817 19.386C41.4297 19.26 41.5257 19.25 42.5157 19.25C43.4417 19.25 43.5977 19.26 43.8057 19.376H43.8077Z" fill="white"/>
</svg>
