<svg width="64" height="65" viewBox="0 0 64 65" fill="none" xmlns="http://www.w3.org/2000/svg">
<path d="M32 64.3825C31.088 64.3825 30.24 64.1451 29.448 63.7345L21.3707 59.0998C20.1574 58.4545 20.7654 58.2198 21.1307 58.1025C22.768 57.5745 23.072 57.4571 24.7734 56.5158C24.9547 56.3985 25.2 56.4571 25.3814 56.5745L31.576 60.1558C31.816 60.2731 32.1227 60.2731 32.304 60.1558L56.536 46.5985C56.776 46.4811 56.8987 46.2465 56.8987 45.9531V18.8971C56.8987 18.6038 56.7787 18.3691 56.536 18.2518L32.304 4.7558C32.0614 4.63847 31.7574 4.63847 31.576 4.7558L7.34402 18.2518C7.10135 18.3691 6.97869 18.6625 6.97869 18.8971V45.9531C6.97869 46.1878 7.10135 46.4811 7.34402 46.5985L13.9627 50.2971C17.5467 52.0571 19.792 50.0038 19.792 47.9505V21.2465C19.792 20.8945 20.096 20.5425 20.5227 20.5425H23.6187C23.984 20.5425 24.3467 20.8358 24.3467 21.2465V47.9478C24.3467 52.5851 21.736 55.2838 17.1814 55.2838C15.784 55.2838 14.6907 55.2838 11.5947 53.8171L5.21869 50.2971C4.45038 49.8747 3.80878 49.2547 3.36015 48.5014C2.91152 47.748 2.67212 46.8886 2.66669 46.0118V18.9558C2.66669 17.1958 3.63735 15.5531 5.21869 14.6731L29.4507 1.11313C30.2396 0.708564 31.1134 0.497559 32 0.497559C32.8866 0.497559 33.7605 0.708564 34.5494 1.11313L58.784 14.6705C60.3627 15.5505 61.3334 17.1931 61.3334 18.9531V46.0091C61.3334 47.7691 60.3627 49.4118 58.784 50.2945L34.5494 63.8491C33.7447 64.1979 32.877 64.3777 32 64.3771V64.3825ZM39.4693 45.7771C28.8427 45.7771 26.656 41.0838 26.656 37.0918C26.656 36.7398 26.96 36.3878 27.384 36.3878H30.5414C30.9067 36.3878 31.208 36.6225 31.208 36.9745C31.696 40.0838 33.0934 41.6091 39.5307 41.6091C44.632 41.6091 46.8187 40.4945 46.8187 37.8545C46.8187 36.3291 46.2107 35.2145 38.256 34.4518C31.6347 33.8038 27.5067 32.3985 27.5067 27.2918C27.5067 22.5371 31.6347 19.7185 38.56 19.7185C46.3334 19.7185 50.16 22.3025 50.6454 27.9371C50.6399 28.1279 50.5757 28.3123 50.4614 28.4651C50.3414 28.5825 50.16 28.6998 49.976 28.6998H46.8187C46.6653 28.6961 46.5173 28.6426 46.397 28.5473C46.2768 28.4521 46.1908 28.3203 46.152 28.1718C45.4213 24.9451 43.5387 23.8865 38.56 23.8865C32.9707 23.8865 32.304 25.7638 32.304 27.1718C32.304 28.8758 33.0934 29.4038 40.624 30.3425C48.0934 31.2811 51.616 32.6305 51.616 37.6758C51.5547 42.8438 47.184 45.7771 39.4693 45.7771Z" fill="white"/>
</svg>
