<svg width="64" height="35" viewBox="0 0 64 35" fill="none" xmlns="http://www.w3.org/2000/svg">
<path d="M18.698 12.718H16.176L14.802 19.78H17.042C18.52 19.78 19.624 19.5 20.354 18.938C21.072 18.386 21.562 17.448 21.812 16.146C22.06 14.896 21.946 14.01 21.49 13.49C21.02 12.98 20.092 12.72 18.698 12.72V12.718ZM32 0.667969C14.322 0.667969 0 8.20997 0 17.5C0 26.79 14.322 34.332 32 34.332C49.678 34.332 64 26.79 64 17.5C64 8.20997 49.678 0.667969 32 0.667969ZM23.302 20.542C22.6096 21.2074 21.7764 21.7085 20.864 22.008C19.968 22.29 18.824 22.446 17.438 22.446H14.28L13.416 26.926H9.738L13.02 10.062H20.082C22.208 10.062 23.76 10.614 24.738 11.728C25.708 12.842 26.01 14.406 25.612 16.406C25.4631 17.198 25.1897 17.9614 24.802 18.668C24.4031 19.3678 23.8962 20.0002 23.3 20.542H23.302ZM34.042 22.446L35.49 14.98C35.656 14.134 35.594 13.554 35.3 13.238C35.02 12.936 34.404 12.78 33.468 12.78H30.562L28.688 22.446H25.032L28.312 5.57197H31.958L31.084 10.062H34.334C36.388 10.062 37.792 10.416 38.564 11.124C39.346 11.844 39.574 12.998 39.274 14.594L37.74 22.448L34.042 22.446ZM54.29 16.406C54.1456 17.1992 53.872 17.9634 53.48 18.668C53.0848 19.367 52.582 19.9994 51.99 20.542C51.2914 21.2042 50.4556 21.7047 49.542 22.008C48.646 22.29 47.5 22.446 46.116 22.446H42.97L42.096 26.926H38.418L41.7 10.062H48.762C50.888 10.062 52.44 10.614 53.418 11.74C54.388 12.844 54.69 14.406 54.292 16.406H54.29ZM47.376 12.718H44.864L43.49 19.78H45.72C47.208 19.78 48.312 19.5 49.032 18.938C49.76 18.386 50.25 17.448 50.502 16.146C50.75 14.896 50.636 14.01 50.166 13.49C49.71 12.98 48.772 12.72 47.376 12.72V12.718Z" fill="white"/>
</svg>
