<svg width="65" height="65" viewBox="0 0 65 65" fill="none" xmlns="http://www.w3.org/2000/svg">
<path d="M32.5 35.2466C35.1289 35.2466 37.26 33.1154 37.26 30.4866C37.26 27.8577 35.1289 25.7266 32.5 25.7266C29.8711 25.7266 27.74 27.8577 27.74 30.4866C27.74 33.1154 29.8711 35.2466 32.5 35.2466Z" fill="white"/>
<path d="M19.172 39.9508L18.1187 39.6815C10.2947 37.7055 5.80667 34.3455 5.80667 30.4761C5.80667 26.6041 10.2973 23.2468 18.1187 21.2708L19.172 21.0041L19.468 22.0468C20.2588 24.7767 21.272 27.4371 22.4973 30.0015L22.724 30.4761L22.4973 30.9508C21.2707 33.5188 20.2547 36.1801 19.468 38.9108L19.172 39.9508ZM17.6333 23.6975C11.6893 25.3721 8.03867 27.9268 8.03867 30.4761C8.03867 33.0201 11.6867 35.5775 17.6333 37.2495C18.3613 34.9348 19.2413 32.6708 20.26 30.4761C19.234 28.2778 18.3564 26.0132 17.6333 23.6975ZM45.8253 39.9508L45.532 38.9055C44.7391 36.1751 43.7251 33.5138 42.5 30.9481L42.2733 30.4761L42.5 29.9988C43.7267 27.4361 44.7373 24.7721 45.532 22.0415L45.8253 21.0015L46.8787 21.2681C54.7053 23.2441 59.1907 26.6015 59.1907 30.4761C59.1907 34.3481 54.7027 37.7055 46.8787 39.6815L45.8253 39.9508ZM44.732 30.4761C45.7987 32.7855 46.6867 35.0575 47.364 37.2495C53.3107 35.5775 56.9613 33.0201 56.9613 30.4761C56.9613 27.9268 53.3133 25.3748 47.364 23.6975C46.6367 26.0125 45.7575 28.2769 44.732 30.4761Z" fill="white"/>
<path d="M17.6173 23.6865L17.324 22.6465C15.1213 14.8918 15.788 9.33717 19.156 7.40117C22.4493 5.4945 27.748 7.74783 33.2973 13.4412L34.0546 14.2198L33.2973 14.9958C31.3263 17.0457 29.5248 19.252 27.9106 21.5932L27.6093 22.0252L27.0866 22.0678C24.2482 22.2908 21.4327 22.7447 18.668 23.4252L17.6173 23.6865ZM21.836 8.9425C21.2386 8.9425 20.7106 9.07317 20.2653 9.32917C18.0573 10.6012 17.668 15.0305 19.188 21.0092C21.564 20.4838 23.9613 20.1078 26.3773 19.8972C27.776 17.9133 29.3019 16.0222 30.9453 14.2358C27.4706 10.8572 24.1906 8.9425 21.836 8.9425ZM43.1613 54.2332C39.9933 54.2332 35.924 51.8438 31.7 47.5078L30.9453 46.7318L31.7 45.9585C33.6713 43.9054 35.4736 41.6964 37.0893 39.3532L37.388 38.9265L37.9053 38.8758C40.7447 38.6568 43.5614 38.2047 46.3266 37.5238L47.38 37.2572L47.676 38.2998C49.868 46.0492 49.204 51.6118 45.8413 53.5478C45.0249 54.0106 44.0997 54.2472 43.1613 54.2332ZM34.0546 46.7132C37.5266 50.0918 40.8093 52.0092 43.1613 52.0092C43.7613 52.0092 44.2893 51.8758 44.732 51.6225C46.9426 50.3478 47.3346 45.9105 45.8093 39.9318C43.436 40.4598 41.036 40.8385 38.6146 41.0492C37.2219 43.0362 35.6985 44.9283 34.0546 46.7132Z" fill="white"/>
<path d="M47.38 23.6865L46.3267 23.4225C43.5615 22.74 40.7449 22.286 37.9053 22.0652L37.388 22.0199L37.0893 21.5879C35.4759 19.2454 33.6734 17.0389 31.7 14.9905L30.9453 14.2145L31.7 13.4412C37.2467 7.75053 42.5427 5.4972 45.8413 7.4012C49.2067 9.33987 49.876 14.8945 47.676 22.6465L47.38 23.6865ZM38.6147 19.8972C41.1587 20.1239 43.5693 20.5052 45.8093 21.0092C47.332 15.0305 46.9427 10.6012 44.732 9.32653C42.5347 8.05453 38.3987 10.0012 34.0547 14.2359C35.6973 16.0225 37.2227 17.9105 38.6147 19.8972ZM21.836 54.2332C20.8977 54.2466 19.9727 54.0101 19.156 53.5479C15.788 51.6119 15.1213 46.0519 17.3213 38.2999L17.6093 37.2572L18.6627 37.5239C21.2333 38.1719 24.0653 38.6279 27.084 38.8759L27.6013 38.9265L27.9027 39.3532C29.5133 41.6945 31.316 43.9052 33.2893 45.9585L34.0467 46.7319L33.2893 47.5079C29.068 51.8465 24.9987 54.2332 21.836 54.2332ZM19.188 39.9345C17.668 45.9132 18.0573 50.3505 20.2653 51.6252C22.4653 52.8785 26.588 50.9452 30.9453 46.7132C29.3025 44.9263 27.7767 43.0352 26.3773 41.0519C23.9589 40.838 21.5573 40.4647 19.188 39.9345Z" fill="white"/>
<path d="M46.2317 12.1406C48.2212 12.1406 49.834 10.5278 49.834 8.5383C49.834 6.54882 48.2212 4.93604 46.2317 4.93604C44.2423 4.93604 42.6295 6.54882 42.6295 8.5383C42.6295 10.5278 44.2423 12.1406 46.2317 12.1406Z" fill="white"/>
<path d="M32.5 41.3346C30.668 41.3346 28.788 41.2572 26.9 41.0999L26.3773 41.0546L26.076 40.6226C25.0114 39.0916 24.0096 37.5179 23.0733 35.9052C22.144 34.2883 21.2802 32.6345 20.484 30.9479L20.26 30.4759L20.484 29.9986C21.2813 28.3132 22.1427 26.6599 23.0733 25.0439C23.9987 23.4546 25.0093 21.8652 26.076 20.3239L26.3773 19.8972L26.9 19.8492C30.625 19.5372 34.3696 19.5372 38.0947 19.8492L38.612 19.8999L38.9133 20.3266C41.0461 23.3899 42.9193 26.626 44.5133 30.0012L44.7347 30.4786L44.5133 30.9506C42.9237 34.3281 41.0503 37.5646 38.9133 40.6252L38.612 41.0572L38.0947 41.1026C36.212 41.2546 34.3293 41.3346 32.5 41.3346ZM27.6093 38.9239C30.9027 39.1719 34.0973 39.1719 37.388 38.9239C39.225 36.2338 40.8581 33.4099 42.2733 30.4759C40.8631 27.5393 39.2298 24.715 37.388 22.0279C34.1333 21.7772 30.8641 21.7772 27.6093 22.0279C25.766 24.714 24.1327 27.5384 22.724 30.4759C24.1424 33.4083 25.7752 36.232 27.6093 38.9239Z" fill="white"/>
</svg>
