<svg width="135" height="135" viewBox="0 0 135 135" fill="none" xmlns="http://www.w3.org/2000/svg">
<path d="M49.705 75.5285C48.9432 74.2537 47.2921 73.8373 46.017 74.5991C37.5705 79.6452 31.4135 88.0028 29.1243 97.5285C28.7774 98.9729 29.667 100.425 31.1108 100.772C31.3223 100.823 31.5335 100.847 31.7416 100.847C32.9563 100.847 34.0582 100.018 34.3543 98.7852C36.3073 90.6575 41.5639 83.5249 48.7758 79.216C50.0504 78.4548 50.4665 76.8037 49.705 75.5285Z" fill="white"/>
<path d="M64.8197 69.4245C61.9457 69.4245 59.0838 69.7583 56.3123 70.4159C54.8674 70.7587 53.9741 72.2084 54.3169 73.6536C54.6103 74.8899 55.7135 75.7223 56.9312 75.7223C57.1368 75.7223 57.3459 75.6986 57.5545 75.649C59.9194 75.0877 62.3636 74.8029 64.8197 74.8029C66.3047 74.8029 67.5089 73.599 67.5089 72.1137C67.5092 70.6285 66.3047 69.4245 64.8197 69.4245Z" fill="white"/>
<path d="M115.457 74.934C110.819 70.7487 105.272 67.5546 99.1504 65.687C106.184 61.4213 110.894 53.691 110.894 44.8812C110.894 31.4742 99.9867 20.5667 86.5798 20.5667C85.3058 20.5667 84.0546 20.6655 82.8328 20.8554C78.15 16.4028 71.8203 13.6658 64.8633 13.6658C57.9063 13.6658 51.5766 16.4025 46.8935 20.8557C45.6719 20.6658 44.4205 20.5669 43.1462 20.5669C29.7393 20.5669 18.832 31.4745 18.832 44.8814C18.832 53.6912 23.5419 61.4213 30.5757 65.687C12.8972 71.0812 0 87.5433 0 106.963C0 108.449 1.20419 109.653 2.68919 109.653H21.0708H91.4206C95.4648 116.63 103.015 121.334 111.643 121.334C124.522 121.334 135 110.857 135 97.9775C135 86.3971 126.528 76.7599 115.457 74.934ZM106.86 75.1143C104.67 75.5718 102.593 76.3375 100.674 77.3624C98.2956 74.4891 95.5782 71.9065 92.5839 69.675C97.7677 70.5064 102.603 72.3945 106.86 75.1143ZM86.9985 25.9559C97.2467 26.18 105.516 34.58 105.516 44.8812C105.516 55.3223 97.0212 63.8173 86.5798 63.8173C83.6918 63.8173 80.9541 63.165 78.5025 62.0037C85.9702 57.4072 90.9605 49.1574 90.9605 39.7636C90.9605 34.6966 89.5074 29.9634 86.9985 25.9559ZM48.7284 26.7859C49.9867 25.2244 51.4656 23.8491 53.1185 22.7072C56.4593 20.4 60.505 19.0445 64.863 19.0445C69.221 19.0445 73.2665 20.4 76.607 22.7072C78.2599 23.8491 79.7389 25.2244 80.9971 26.7859C83.8616 30.3402 85.5816 34.8537 85.5816 39.763C85.5816 48.0961 80.6338 55.2912 73.5241 58.5773C71.7293 59.4068 69.7979 59.9872 67.7719 60.2735C66.8208 60.4077 65.8505 60.4818 64.863 60.4818C63.8753 60.4818 62.905 60.408 61.9537 60.2735C59.9279 59.9874 57.9962 59.4071 56.2014 58.5773C49.0917 55.2912 44.1442 48.0961 44.1442 39.763C44.1442 34.8535 45.8641 30.3402 48.7284 26.7859ZM24.2104 44.8812C24.2104 34.58 32.4796 26.18 42.7278 25.9556C40.2189 29.9631 38.7661 34.696 38.7661 39.763C38.7661 49.1571 43.7561 57.4066 51.2238 62.0032C48.7719 63.1644 46.0345 63.8168 43.1465 63.8168C32.7051 63.817 24.2104 55.3223 24.2104 44.8812ZM18.4613 104.274H5.4733C6.7144 86.7061 20.0261 72.4204 37.1429 69.675C26.4379 77.6537 19.2726 90.1264 18.4613 104.274ZM89.1501 104.275H23.8467V104.274C24.8513 88.7888 34.4719 75.615 47.9495 69.5057C51.0988 68.078 54.4583 67.0351 57.9683 66.44C60.2108 66.0598 62.514 65.8607 64.863 65.8607C67.2121 65.8607 69.5152 66.0598 71.7575 66.44C75.2675 67.0354 78.627 68.078 81.7765 69.5057C87.3766 72.0444 92.311 75.8009 96.2376 80.4384C91.3665 84.722 88.2868 90.9966 88.2868 97.9781C88.2871 100.159 88.5885 102.27 89.1501 104.275ZM125.298 109.653C121.998 113.506 117.103 115.955 111.643 115.955C106.184 115.955 101.289 113.506 97.9892 109.652C96.6357 108.072 95.5499 106.256 94.8061 104.274C94.0702 102.313 93.6652 100.192 93.6652 97.9775C93.6652 92.7661 95.8959 88.0677 99.4507 84.781C100.767 83.5639 102.264 82.5393 103.898 81.7559C106.245 80.6308 108.871 79.9994 111.643 79.9994C112.121 79.9994 112.593 80.0239 113.061 80.0605C116.935 80.3645 120.465 81.8988 123.263 84.275C127.149 87.5754 129.622 92.4921 129.622 97.9778C129.622 99.0631 129.52 100.124 129.334 101.157C128.76 104.363 127.334 107.275 125.298 109.653Z" fill="white"/>
<path d="M125.373 93.7667C124.875 92.2327 123.456 91.2023 121.843 91.2023H119.391C117.846 91.2023 116.488 90.2153 116.011 88.7464L115.253 86.4137V86.4134C114.754 84.8794 113.336 83.849 111.723 83.8492C110.11 83.8492 108.691 84.8797 108.193 86.4137L107.435 88.7464C106.958 90.2153 105.6 91.2023 104.055 91.2023H101.603C99.9898 91.2023 98.5712 92.2327 98.0729 93.7665C97.5743 95.3005 98.1159 96.9682 99.4211 97.9164L101.405 99.3579C102.655 100.266 103.174 101.863 102.696 103.332L101.939 105.664C101.44 107.198 101.982 108.866 103.287 109.814C104.592 110.762 106.345 110.762 107.65 109.814L109.634 108.372C110.884 107.465 112.563 107.465 113.813 108.372L115.797 109.814C116.449 110.288 117.214 110.525 117.978 110.525C118.743 110.525 119.508 110.288 120.161 109.814C121.465 108.865 122.007 107.198 121.509 105.664L120.751 103.331C120.274 101.863 120.792 100.266 122.042 99.3579L124.026 97.9164C125.33 96.9682 125.872 95.3008 125.373 93.7667ZM115.231 103.031C112.99 102.071 110.455 102.071 108.215 103.031C108.436 100.603 107.653 98.1922 106.047 96.3584C108.424 95.8186 110.475 94.3289 111.723 92.2351C112.97 94.3286 115.021 95.8184 117.398 96.3584C115.792 98.1925 115.009 100.603 115.231 103.031Z" fill="white"/>
</svg>
